<?xml version="1.0" encoding="UTF-8"?><svg version="1.1" viewBox="0 0 84 72" xmlns="http://www.w3.org/2000/svg"><g fill="none" fill-rule="evenodd"><g transform="translate(-682 -329)" fill="#2A2D2F" fill-rule="nonzero"><path d="m725.11 329c3.3257 0 10.856 1.1348 18.518 6.3372 7.6623 5.2024 13.096 13.147 14.976 22.216h0.41794c2.5077 0.21091 4.667 1.9685 5.9209 4.9212 0.83589 1.9685 1.2538 4.3588 0.9752 6.7491-0.34829 6.1163-3.8312 10.686-8.0106 10.686h-0.34829c-0.41794 0-0.76623-0.070303-1.1842-0.21091-5.6422 12.795-18.39 21.302-32.391 21.302s-26.748-8.4363-32.321-21.302c-0.41794 0.070303-0.76623 0.21091-1.1842 0.21091h-0.34829c-4.1794 0-7.6623-4.5697-8.0803-10.686-0.41794-5.5539 2.0201-10.194 5.5726-11.389-2.438-1.3358-4.2491-2.8824-5.294-4.5697-0.4876-0.77333-0.27863-1.8982 0.55726-2.3903 0.76623-0.49212 1.8807-0.28121 2.3684 0.56242 0.83589 1.2654 2.5077 2.6012 4.7367 3.726 2.5077-8.7878 8.2892-16.24 16.161-20.88 7.8713-4.64 15.632-5.2827 18.958-5.2827zm13.224 16.25c-5.085 6.5382-12.538 11.67-20.967 14.342-4.4581 1.4061-9.0555 2.1091-13.514 2.1091-4.0401 0-7.8713-0.63272-11.424-1.7576-0.27863 1.7576-0.41794 3.5151-0.41794 5.2727 0 3.937 0.69657 7.8739 2.0897 11.53 4.667 12.373 16.718 20.739 29.883 20.739 13.165 0 25.216-8.366 29.953-20.669 1.3931-3.726 2.0897-7.5927 2.0897-11.53 0-0.77333 0-1.5467-0.069658-2.32-0.41794-0.1406-0.83589-0.35151-1.1842-0.49212-4.7367-2.1091-8.5679-5.1321-11.563-9.0691-2.0201-2.6715-3.6918-5.4133-4.876-8.1551zm-14.83 32.75c3.0822 0 5.4795 0.92903 6.9863 2.7097 0.68493 0.77419 0.68493 2.0129 0 2.7097-0.68493 0.77419-1.7123 0.77419-2.3973 0-0.89041-1.0065-2.3973-1.5484-4.589-1.5484s-3.6986 0.54194-4.589 1.5484c-0.68493 0.77419-1.7808 0.77419-2.3973 0-0.68493-0.77419-0.68493-2.0129 0-2.7097 1.5753-1.7806 3.9041-2.7097 6.9863-2.7097zm-34.766-16.862c-1.8111 0.49212-3.5525 3.6557-3.2739 7.8739 0.27863 4.5697 2.647 7.5927 4.7367 7.4521h0.13932c-1.1842-3.6557-1.8111-7.3818-1.8111-11.248 0-1.3358 0.069658-2.7418 0.20897-4.0776zm70.493 0v0.35151c0.13932 1.1951 0.20897 2.4606 0.20897 3.6557 0 3.8667-0.62692 7.5927-1.8111 11.248h0.13932c2.0201 0.14061 4.4581-2.8824 4.7367-7.3818 0.13932-1.8279-0.13932-3.6557-0.76623-5.2024-0.62692-1.4061-1.5325-2.3903-2.5077-2.6715zm-17.727 3.8617c1.933 0 3.5 1.567 3.5 3.5s-1.567 3.5-3.5 3.5-3.5-1.567-3.5-3.5 1.567-3.5 3.5-3.5zm-34 0c1.933 0 3.5 1.567 3.5 3.5s-1.567 3.5-3.5 3.5-3.5-1.567-3.5-3.5 1.567-3.5 3.5-3.5zm34.731-26.359c-0.4876 1.0545-0.9752 2.0388-1.6021 3.023 1.1145 3.0933 2.9256 6.3272 5.294 9.4909 2.438 3.2339 5.6422 5.7648 9.4037 7.5927-1.6021-8.0848-6.2692-15.256-13.096-20.107zm-18.25-5.6945c-5.2243 0-10.379 1.2654-14.976 3.726-7.8016 4.1479-13.444 11.319-15.812 19.966 4.1098 1.3358 12.469 3.023 23.057-0.35151 8.7768-2.8121 16.439-8.5066 21.037-15.607 0.76623-1.2654 1.4628-2.4606 2.0201-3.726-0.76623-0.49212-1.6021-0.91394-2.438-1.2654-4.1098-1.8279-8.4285-2.7418-12.887-2.7418z"/></g></g></svg>