<?xml version="1.0" encoding="UTF-8"?><svg version="1.1" viewBox="0 0 65 65" xmlns="http://www.w3.org/2000/svg" xmlns:xlink="http://www.w3.org/1999/xlink"><defs><circle id="a" cx="32.5" cy="32.5" r="32.5"/></defs><g fill="none" fill-rule="evenodd"><g transform="translate(-463 -822)"><g transform="translate(463 822)"><mask id="b" fill="white"><use xlink:href="#a"/></mask><use fill="#FFC61E" xlink:href="#a"/><path d="m33.092 13c1.7816 0 5.8155 0.60796 9.9203 3.395 4.1048 2.7871 7.0155 7.043 8.023 11.902h0.2239c1.3434 0.11299 2.5002 1.0546 3.1719 2.6364 0.4478 1.0546 0.6717 2.3351 0.52243 3.6157-0.18658 3.2767-2.0524 5.7248-4.2914 5.7248h-0.18658c-0.2239 0-0.41048-0.037663-0.63438-0.11299-3.0226 6.8547-9.8515 11.412-17.352 11.412-7.5006 0-14.33-4.5196-17.315-11.412-0.2239 0.037663-0.41048 0.11299-0.63438 0.11299h-0.18658c-2.239 0-4.1048-2.4481-4.3287-5.7248-0.2239-2.9754 1.0822-5.4612 2.9853-6.1015-1.3061-0.7156-2.2763-1.5442-2.836-2.4481-0.26122-0.4143-0.14927-1.0169 0.29853-1.2806 0.41048-0.26364 1.0075-0.15065 1.2688 0.30131 0.4478 0.67794 1.3434 1.3935 2.5375 1.9962 1.3434-4.7079 4.4407-8.7002 8.6574-11.186 4.2168-2.4858 8.3743-2.8301 10.156-2.8301zm7.0842 8.7056c-2.7241 3.5027-6.717 6.2521-11.232 7.6833-2.3883 0.75327-4.8511 1.1299-7.2394 1.1299-2.1644 0-4.2168-0.33897-6.1199-0.94158-0.14927 0.94158-0.2239 1.8832-0.2239 2.8248 0 2.1091 0.37316 4.2183 1.1195 6.1768 2.5002 6.6287 8.9559 11.111 16.009 11.111 7.0528 0 13.509-4.4819 16.046-11.073 0.74633-1.9962 1.1195-4.0676 1.1195-6.1768 0-0.4143 0-0.82859-0.037316-1.2429-0.2239-0.075327-0.4478-0.18832-0.63438-0.26364-2.5375-1.1299-4.5899-2.7494-6.1945-4.8586-1.0822-1.4312-1.9778-2.9001-2.6122-4.3689zm-11.493 17.815c0.33585-0.37663 0.93291-0.37663 1.3061 0 0.48511 0.48962 1.3061 0.75327 2.5002 0.75327 1.1941 0 2.0151-0.26364 2.5002-0.75327 0.37316-0.37663 0.93291-0.37663 1.3061 0 0.37316 0.33897 0.37316 0.94158 0 1.3182-0.82096 0.86626-2.127 1.3182-3.8063 1.3182-1.6792 0-2.948-0.45196-3.8063-1.3182-0.37316-0.33897-0.37316-0.94158 0-1.3182zm-15.076-9.3028c-0.97023 0.26364-1.9031 1.9585-1.7539 4.2183 0.14927 2.4481 1.418 4.0676 2.5375 3.9923h0.074633c-0.63438-1.9585-0.97023-3.9547-0.97023-6.0261 0-0.7156 0.037316-1.4689 0.11195-2.1845zm37.764 0v0.18832c0.074633 0.64028 0.11195 1.3182 0.11195 1.9585 0 2.0715-0.33585 4.0676-0.97023 6.0261h0.074633c1.0822 0.075327 2.3883-1.5442 2.5375-3.9547 0.074633-0.97925-0.074633-1.9585-0.41048-2.7871-0.33585-0.75327-0.82096-1.2806-1.3434-1.4312zm-9.665 2.3728c0.92742 0 1.6792 0.75881 1.6792 1.6949 0 0.93604-0.75182 1.6949-1.6792 1.6949s-1.6792-0.75881-1.6792-1.6949c0-0.93604 0.75182-1.6949 1.6792-1.6949zm-18.024 0c0.92742 0 1.6792 0.75881 1.6792 1.6949 0 0.93604-0.75182 1.6949-1.6792 1.6949-0.92742 0-1.6792-0.75881-1.6792-1.6949 0-0.93604 0.75182-1.6949 1.6792-1.6949zm18.584-14.425c-0.26122 0.56495-0.52243 1.0922-0.85828 1.6195 0.59706 1.6572 1.5673 3.3897 2.836 5.0846 1.3061 1.7325 3.0226 3.0884 5.0377 4.0676-0.85828-4.3313-3.3585-8.1729-7.0155-10.772zm-9.7769-3.0507c-2.7987 0-5.5601 0.67794-8.023 1.9962-4.1794 2.2221-7.2021 6.0638-8.4708 10.696 2.2017 0.7156 6.6796 1.6195 12.352-0.18832 4.7019-1.5065 8.8067-4.5573 11.27-8.3613 0.41048-0.67794 0.78365-1.3182 1.0822-1.9962-0.41048-0.26364-0.85828-0.48962-1.3061-0.67794-2.2017-0.97925-4.5153-1.4689-6.9035-1.4689z" fill="#1A1A1A" fill-rule="nonzero" mask="url(#b)"/></g></g></g></svg>