<?xml version="1.0" encoding="UTF-8"?>
<svg version="1.1" viewBox="0 0 32 28" xmlns="http://www.w3.org/2000/svg" xmlns:xlink="http://www.w3.org/1999/xlink"><defs><polygon id="a" points="0 0 32 0 32 28 0 28"/></defs><g fill="none" fill-rule="evenodd"><g transform="translate(-260 -305)"><g transform="translate(260 305)"><mask id="b" fill="white"><use xlink:href="#a"/></mask><path d="m2.2687 25.687v-3.757c1.0943 0.87686 2.502 1.4062 4.0366 1.4062 1.9017 0 3.6718-0.83838 4.8473-2.2061 1.1744 1.3678 2.9445 2.2061 4.8473 2.2061 1.9017 0 3.6718-0.83838 4.8473-2.2061 1.1755 1.3678 2.9457 2.2061 4.8473 2.2061 1.5346 0 2.9423-0.52938 4.0366-1.4062v3.757h-27.463zm0-9.8845c0-1.0751 0.85763-1.9496 1.9119-1.9496h23.639c1.0543 0 1.9119 0.87453 1.9119 1.9496v1.4867c0 2.0581-1.8113 3.7336-4.0366 3.7336-1.697 0-3.2201-1.0051-3.7896-2.5023l-1.0577-2.7752-1.0577 2.7752c-0.56947 1.4972-2.0926 2.5023-3.7896 2.5023s-3.2201-1.0051-3.7907-2.5023l-1.0566-2.7752-1.0577 2.7752c-0.57061 1.4972-2.0938 2.5023-3.7896 2.5023-2.2264 0-4.0366-1.6756-4.0366-3.7336v-1.4867zm5.6226-11.255c0.49971 0.97364 0.85192 1.8074 0.86907 2.1082-0.002287 0.4874-0.39108 0.88269-0.86907 0.88269-0.47913 0-0.86907-0.39762-0.86907-0.88036 0.016009-0.2985 0.36821-1.1346 0.86907-2.1105zm8.0046 0c0.49971 0.97364 0.85192 1.8074 0.86907 2.1082-0.002287 0.4874-0.39108 0.88269-0.86907 0.88269-0.47913 0-0.86907-0.39762-0.86907-0.88036 0.016009-0.2985 0.36821-1.1346 0.86907-2.1105zm8.0046 0c0.49971 0.97364 0.85192 1.8074 0.86907 2.1082-0.002287 0.4874-0.39108 0.88269-0.86907 0.88269-0.47913 0-0.86907-0.39762-0.86907-0.88036 0.016009-0.2985 0.36821-1.1346 0.86907-2.1105zm3.9188 6.9915h-2.7844v-1.9123c1.1698-0.46525 2.0034-1.6196 2.0034-2.9746 0-1.3141-1.5186-3.9703-2.1715-5.0524l-0.96627-1.5998-0.96627 1.5998c-0.65294 1.0821-2.1715 3.7383-2.1715 5.0524 0 1.3549 0.83362 2.5093 2.0034 2.9746v1.9123h-5.7358v-1.9123c1.1698-0.46525 2.0034-1.6196 2.0034-2.9746 0-1.3141-1.5186-3.9703-2.1715-5.0524l-0.96627-1.5998-0.96627 1.5998c-0.65294 1.0821-2.1715 3.7383-2.1715 5.0524 0 1.3549 0.83362 2.5093 2.0034 2.9746v1.9123h-5.7358v-1.9123c1.1698-0.46525 2.0034-1.6196 2.0034-2.9746 0-1.3141-1.5186-3.9703-2.1715-5.0524l-0.96627-1.5998-0.96627 1.5998c-0.65294 1.0821-2.1715 3.7383-2.1715 5.0524 0 1.3549 0.83362 2.5093 2.0034 2.9746v1.9123h-2.5763c-2.3053 0-4.1807 1.9123-4.1807 4.263v12.198h32v-12.198c0-2.3507-1.8754-4.263-4.1807-4.263z" fill="#000" mask="url(#b)"/></g></g></g></svg>