<?xml version="1.0" encoding="UTF-8"?>
<svg version="1.1" viewBox="0 0 65 65" xmlns="http://www.w3.org/2000/svg"><g fill="none" fill-rule="evenodd"><g transform="translate(-463 -202)"><g transform="translate(463 202)"><ellipse cx="32.386" cy="32.5" rx="32.386" ry="32.5" fill="#FFC61E"/><path d="m32.621 16.467c4.1084 0 7.8838 1.4857 10.808 4.0857 1.5916-1.6714 2.3318-3.38 2.4058-3.5286 0.22208-0.48286 0.74026-0.66857 1.2214-0.48286 0.48117 0.22286 0.66623 0.74286 0.48117 1.2257-0.074026 0.18571-0.92532 2.1543-2.776 4.1229 1.2955 1.4857 2.3688 3.1943 3.1091 5.1257 0.40714-0.11143 0.8513-0.14857 1.2955-0.14857 3.2942 0 5.9591 2.6743 5.9591 5.98 0 3.3057-2.6649 5.98-5.9591 5.98-0.44416 0-0.8513-0.037143-1.2955-0.14857-2.4058 6.3514-8.4019 10.549-15.249 10.549-6.8104 0-12.844-4.1971-15.249-10.549-0.40714 0.11143-0.8513 0.14857-1.2955 0.14857-3.2942 0-5.9591-2.6743-5.9591-5.98 0-3.3057 2.6649-5.98 5.9591-5.98 0.44416 0 0.8513 0.037143 1.2955 0.14857 2.4058-6.3514 8.4019-10.549 15.249-10.549zm-6.9584 3.64c-3.1831 1.7086-5.7 4.6429-6.8474 8.32-0.48117 1.4114-0.70325 2.9343-0.70325 4.42 0 1.4857 0.25909 3.0086 0.70325 4.42l0.10463 0.31678c2.0151 5.8783 7.483 9.7861 13.701 9.7861 6.3292 0 11.881-4.0486 13.806-10.066 0.48117-1.4114 0.70325-2.8971 0.70325-4.42s-0.25909-3.0086-0.70325-4.42c-0.66623-2.0429-1.7026-3.8257-3.0351-5.3114-1.8136 1.4486-4.2195 2.6371-7.3656 2.6371-6.2922 0-9.3273-3.9-10.364-5.6829zm3.1831 18.794c0.33312-0.37143 0.92532-0.37143 1.2955 0 0.48117 0.48286 1.3325 0.74286 2.4799 0.74286 1.1844 0 1.9987-0.26 2.4799-0.74286 0.33312-0.37143 0.92532-0.37143 1.2955 0 0.37013 0.33429 0.37013 0.92857 0 1.3-0.81429 0.85429-2.1097 1.3-3.7753 1.3s-2.924-0.44571-3.7753-1.3c-0.37013-0.33429-0.37013-0.92857 0-1.3zm-12.806-10.177c-2.2578 0-4.1084 1.8571-4.1084 4.1229 0 2.2657 1.8506 4.1229 4.1084 4.1971 0.25909 0 0.48117-0.037143 0.74026-0.074286-0.33312-1.3371-0.51818-2.7114-0.51818-4.0857 0-1.3743 0.18506-2.7486 0.51818-4.0857-0.25909-0.037143-0.48117-0.074286-0.74026-0.074286zm33.127-0.074286c-0.25909 0-0.48117 0.037143-0.74026 0.074286 0.33312 1.3371 0.51818 2.7114 0.51818 4.0857 0 1.3743-0.18506 2.7486-0.51818 4.0857 0.25909 0.037143 0.48117 0.074286 0.74026 0.074286 2.2948 0 4.1084-1.9314 4.1084-4.1971s-1.8506-4.1229-4.1084-4.1229zm-8.2909 2.1171c0.91988 0 1.6656 0.74832 1.6656 1.6714 0 0.9231-0.74571 1.6714-1.6656 1.6714-0.91988 0-1.6656-0.74832-1.6656-1.6714 0-0.9231 0.74571-1.6714 1.6656-1.6714zm-16.175 0c0.91988 0 1.6656 0.74832 1.6656 1.6714 0 0.9231-0.74571 1.6714-1.6656 1.6714-0.91988 0-1.6656-0.74832-1.6656-1.6714 0-0.9231 0.74571-1.6714 1.6656-1.6714zm7.9208-12.443c-1.8506 0-3.6273 0.33429-5.2558 0.96571 0.92532 1.5229 3.4422 4.6057 8.661 4.6057 2.5169 0 4.5156-0.89143 6.0331-2.08-2.5539-2.1914-5.8851-3.4914-9.4383-3.4914z" fill="#1A1A1A" fill-rule="nonzero"/></g></g></g></svg>