<?xml version="1.0" encoding="UTF-8"?>
<svg version="1.1" viewBox="0 0 24 24" xmlns="http://www.w3.org/2000/svg">
<title>5c4285ff-3c8c-4177-bf76-71109d92ec9b@2.00x</title>
<desc>Created with sketchtool.</desc>
<g fill="none" fill-rule="evenodd">
<rect width="24" height="24"/>
<path d="m11.804-2.3093e-13c6.5194 0 11.805 5.2848 11.805 11.804s-5.2858 11.805-11.805 11.805-11.804-5.2858-11.804-11.805 5.2848-11.804 11.804-11.804zm0 2.5296c-5.113 0-9.2736 4.1606-9.2736 9.2746 0 5.1149 4.1606 9.2755 9.2736 9.2755 5.1139 0 9.2755-4.1606 9.2755-9.2755 0-5.1139-4.1616-9.2746-9.2755-9.2746zm1.2646 3.3129v5.4384l3.5971 3.5962-1.7875 1.7885-4.3392-4.3373v-6.4858h2.5296z" fill="#000"/>
</g>
</svg>
