<?xml version="1.0" encoding="UTF-8"?>
<svg width="48px" height="48px" viewBox="0 0 48 48" version="1.1" xmlns="http://www.w3.org/2000/svg" xmlns:xlink="http://www.w3.org/1999/xlink">
    <!-- Generator: Sketch 59.1 (86144) - https://sketch.com -->
    <title>Icons/Delete/48</title>
    <desc>Created with Sketch.</desc>
    <g id="Icons/Delete/48" stroke="none" stroke-width="1" fill="none" fill-rule="evenodd">
        <rect id="Bounding-box" x="0" y="0" width="48" height="48"></rect>
        <path d="M23.65728,3 C35.06616,3 44.31624,12.2484 44.31624,23.65728 C44.31624,35.06616 35.06616,44.31624 23.65728,44.31624 C12.2484,44.31624 3,35.06616 3,23.65728 C3,12.2484 12.2484,3 23.65728,3 Z M23.65728,7.4268 C14.7096,7.4268 7.42848,14.70792 7.42848,23.65728 C7.42848,32.60832 14.7096,39.88944 23.65728,39.88944 C32.60664,39.88944 39.88776,32.60832 39.88776,23.65728 C39.88776,14.70792 32.60664,7.4268 23.65728,7.4268 Z M29.469912,14.713968 L32.599752,17.843808 L26.786952,23.656608 L32.599752,29.469408 L29.469912,32.599248 L23.657112,26.788128 L17.844312,32.599248 L14.716152,29.469408 L20.528952,23.656608 L14.716152,17.843808 L17.844312,14.713968 L23.657112,20.526768 L29.469912,14.713968 Z" id="Color" fill="#000000"></path>
    </g>
</svg>