<?xml version="1.0" encoding="UTF-8"?>
<svg version="1.1" viewBox="0 0 48 48" xmlns="http://www.w3.org/2000/svg"><g fill="none" fill-rule="evenodd"><rect width="48" height="48"/><path d="m23.657 3c11.409 0 20.659 9.2484 20.659 20.657s-9.2501 20.659-20.659 20.659-20.657-9.2501-20.657-20.659 9.2484-20.657 20.657-20.657zm0 4.4268c-8.9477 0-16.229 7.2811-16.229 16.23 0 8.951 7.2811 16.232 16.229 16.232 8.9494 0 16.23-7.2811 16.23-16.232 0-8.9494-7.2811-16.23-16.23-16.23zm5.8126 7.2872 3.1298 3.1298-5.8128 5.8128 5.8128 5.8128-3.1298 3.1298-5.8128-5.8111-5.8128 5.8111-3.1282-3.1298 5.8128-5.8128-5.8128-5.8128 3.1282-3.1298 5.8128 5.8128 5.8128-5.8128z" fill="#000"/></g></svg>