<?xml version="1.0" encoding="UTF-8"?><svg version="1.1" viewBox="0 0 34 25" xmlns="http://www.w3.org/2000/svg"><g fill="none" fill-rule="evenodd"><g transform="translate(-154 -201)" fill="#000" fill-rule="nonzero" stroke="#000" stroke-width=".5"><path d="m184.04 202c1.6346 0 2.9597 1.2621 2.9597 2.8191 0 0.026473-3.9e-4 0.052897-0.001167 0.079268l0.001167 0.088681v17.026c0 1.6497-1.3516 2.987-3.0189 2.987h-25.962c-1.6673 0-3.0189-1.3373-3.0189-2.987v-17.026c0-1.6497 1.3516-2.987 3.0189-2.987zm-16.405 12.045 0.365 0.46664-3.1367 2.7514-6.7763 5.9439h25.868l-9.677-8.438-1.0804 0.72132c-0.9592 0.6396-2.2173 0.67723-3.2116 0.11287l-0.18322-0.11287-2.1677-1.4453zm-10.824-7.2866-1.05e-4 15.019 9.682-8.494-9.2304-6.1546c-0.16627-0.11087-0.31691-0.23507-0.45145-0.37003zm28.377 0.73559-9.275 6.185 9.275 8.086v-14.271zm-1.2069-3.7018-25.506-0.001658c-0.19199 0.082202-0.36031 0.21286-0.4845 0.38181-0.37499 0.51017-0.24476 1.2133 0.29087 1.5705l12.54 8.3619c0.40766 0.27183 0.95028 0.27183 1.3579 0l12.54-8.3619c0.23642-0.15765 0.40141-0.38997 0.46974-0.65082l-2.96e-4 -0.10498c0-0.65987-0.54064-1.1948-1.2075-1.1948z"/></g></g></svg>