<?xml version="1.0" encoding="UTF-8"?>
<svg version="1.1" viewBox="0 0 163 152" xmlns="http://www.w3.org/2000/svg"><g fill="none" fill-rule="evenodd"><g transform="translate(-182 -487)"><g transform="translate(187 493)"><path id="b" d="m73.443 39.633 37.506 37.401c0.70161 0.69965 1.2238 1.5111 1.5665 2.3772 1.1255 1.2415 1.8111 2.8897 1.8111 4.698v50.891c0 3.866-3.134 7-7 7h-77.652c-3.866 0-7-3.134-7-7v-50.891c0-1.8112 0.68789-3.4618 1.8167-4.7046 0.34885-0.87996 0.87717-1.6886 1.561-2.3706l37.506-37.401c2.7321-2.7244 7.1536-2.7244 9.8856 0z" stroke="#000" stroke-width="8"/><path d="m23 135 32-26" fill="#D8D8D8" stroke="#000" stroke-width="8"/><path d="m113 135-33-26" fill="#D8D8D8" stroke="#000" stroke-width="8"/><polygon transform="translate(68.444 99.502) rotate(180) translate(-68.444 -99.502)" points="68.362 87.092 111.58 119.93 116.42 113.56 68.181 76.908 20.469 115.9 25.531 122.1" fill="#000" fill-rule="nonzero"/><path id="a" d="m75.121 101c-1.4533-26.882 10.173-43.215 34.879-49" stroke="#000" stroke-linecap="round" stroke-width="6"/><path transform="translate(46 75) scale(-1 1) translate(-46 -75)" d="m29.118 100c-1.4118-27.431 9.8824-44.097 33.882-50" stroke="#000" stroke-linecap="round" stroke-width="6"/><polygon id="Star" points="131 56 118.07 62.798 120.54 48.399 110.08 38.202 124.53 36.101 131 23 137.47 36.101 151.92 38.202 141.46 48.399 143.93 62.798" fill="#FFC61E" stroke="#000" stroke-linecap="round" stroke-width="5"/><polygon id="c" transform="translate(16 41) rotate(90) translate(-16 -41)" points="16 51.534 6.1115 57 8 45.422 0 37.223 11.056 35.534 16 25 20.944 35.534 32 37.223 24 45.422 25.889 57" fill="#FFC61E" stroke="#000" stroke-linecap="round" stroke-width="5"/><polygon transform="translate(49.5 13.5) rotate(90) translate(-49.5 -13.5)" points="49.5 22.388 41.157 27 42.75 17.231 36 10.313 45.328 8.8878 49.5 0 53.672 8.8878 63 10.313 56.25 17.231 57.843 27" fill="#FFC61E" stroke="#000" stroke-linecap="round" stroke-width="5"/><polygon transform="translate(89.5 15.5) rotate(90) translate(-89.5 -15.5)" points="89.5 25.046 80.539 30 82.25 19.508 75 12.077 85.019 10.546 89.5 1 93.981 10.546 104 12.077 96.75 19.508 98.461 30" fill="#FFC61E" stroke="#000" stroke-linecap="round" stroke-width="5"/></g></g></g></svg>