<?xml version="1.0" encoding="UTF-8"?>
<svg width="146px" height="152px" viewBox="0 0 146 152" version="1.1" xmlns="http://www.w3.org/2000/svg" xmlns:xlink="http://www.w3.org/1999/xlink">
    <!-- Generator: Sketch 60 (88103) - https://sketch.com -->
    <title>Group</title>
    <desc>Created with Sketch.</desc>
    <g id="MVP" stroke="none" stroke-width="1" fill="none" fill-rule="evenodd">
        <g id="Kirjautuneen-käyttäjän-näkymä-Auki-Copy-2" transform="translate(-180.000000, -482.000000)" stroke="#000000" stroke-width="2">
            <g id="Group" transform="translate(180.000000, 484.000000)">
                <path d="M78.9497475,36.5527778 L103.106936,60.7099659 L121.447222,79.0502525 C122.132522,79.7355527 122.646026,80.5275939 122.987732,81.3728586 C123.63014,82.4301929 124,83.6719038 124,85 L124,142 C124,145.865993 120.865993,149 117,149 L31,149 C27.1340068,149 24,145.865993 24,142 L24,85 C24,83.6672894 24.3724341,82.4215655 25.0189009,81.3612296 C25.3673728,80.5048646 25.8858346,79.7171958 26.5527778,79.0502525 L69.0502525,36.5527778 C71.7839226,33.8191078 76.2160774,33.8191078 78.9497475,36.5527778 Z" id="Combined-Shape"></path>
                <line x1="24" y1="142" x2="59" y2="113" id="Path-4" fill="#D8D8D8"></line>
                <line x1="123.5" y1="142" x2="87.5" y2="113" id="Path-5" fill="#D8D8D8"></line>
                <polyline id="Combined-Shape" transform="translate(73.750000, 104.500000) rotate(180.000000) translate(-73.750000, -104.500000) " points="108.044679 49.1875542 45.4657288 57.3192821 39.4553211 121.312446"></polyline>
                <path d="M92,92 C90.6666667,65.6666667 101.333333,49.6666667 124,44" id="Path-3"></path>
                <path d="M30.1111111,99 C28.7777778,72.6666667 39.4444444,56.6666667 62.1111111,51" id="Path-3" transform="translate(46.055556, 75.000000) scale(-1, 1) translate(-46.055556, -75.000000) "></path>
                <polygon id="Star" fill="#FFE977" points="134 46 128.122147 49.0901699 129.244717 42.545085 124.489435 37.9098301 131.061074 36.954915 134 31 136.938926 36.954915 143.510565 37.9098301 138.755283 42.545085 139.877853 49.0901699"></polygon>
                <polygon id="Star" fill="#FFE977" transform="translate(10.000000, 54.000000) rotate(90.000000) translate(-10.000000, -54.000000) " points="10 59 4.12214748 62.0901699 5.24471742 55.545085 0.489434837 50.9098301 7.06107374 49.954915 10 44 12.9389263 49.954915 19.5105652 50.9098301 14.7552826 55.545085 15.8778525 62.0901699"></polygon>
                <polygon id="Star-Copy" fill="#FFE977" transform="translate(72.000000, 58.000000) rotate(90.000000) translate(-72.000000, -58.000000) " points="72 63 66.1221475 66.0901699 67.2447174 59.545085 62.4894348 54.9098301 69.0610737 53.954915 72 48 74.9389263 53.954915 81.5105652 54.9098301 76.7552826 59.545085 77.8778525 66.0901699"></polygon>
                <polygon id="Star-Copy-2" fill="#FFE977" transform="translate(74.000000, 10.000000) rotate(90.000000) translate(-74.000000, -10.000000) " points="74 15 68.1221475 18.0901699 69.2447174 11.545085 64.4894348 6.90983006 71.0610737 5.95491503 74 0 76.9389263 5.95491503 83.5105652 6.90983006 78.7552826 11.545085 79.8778525 18.0901699"></polygon>
                <polygon id="Star" fill="#FFE977" transform="translate(39.500000, 30.500000) rotate(90.000000) translate(-39.500000, -30.500000) " points="39.5 38.25 30.3893286 43.0397634 32.129312 32.8948817 24.758624 25.7102366 34.9446643 24.2301183 39.5 15 44.0553357 24.2301183 54.241376 25.7102366 46.870688 32.8948817 48.6106714 43.0397634"></polygon>
                <polygon id="Star" fill="#FFE977" transform="translate(103.500000, 28.500000) rotate(90.000000) translate(-103.500000, -28.500000) " points="103.5 36.25 94.3893286 41.0397634 96.129312 30.8948817 88.758624 23.7102366 98.9446643 22.2301183 103.5 13 108.055336 22.2301183 118.241376 23.7102366 110.870688 30.8948817 112.610671 41.0397634"></polygon>
            </g>
        </g>
    </g>
</svg>