<?xml version="1.0" encoding="UTF-8"?><svg version="1.1" viewBox="0 0 24 24" xmlns="http://www.w3.org/2000/svg"><g fill="none" fill-rule="evenodd"><g transform="translate(-1281 -117)" fill="#000" fill-rule="nonzero" stroke="#000" stroke-width=".5"><g transform="translate(1281 118)"><path id="a" d="m12.141 22.588c-0.98824 0-1.9059-0.63529-2.2588-1.5529l-0.42353-1.1294c-0.070588-0.28235-0.28235-0.49412-0.56471-0.56471-0.28235-0.070588-0.56471-0.070588-0.84706 0.070588l-0.98824 0.42353c-0.84706 0.42353-1.8353 0.42353-2.5412-0.14118-0.98824-0.70588-1.2706-1.9059-0.84706-2.9647l0.49412-1.1294c0.14118-0.28235 0.14118-0.56471 0-0.84706-0.14118-0.28235-0.35294-0.42353-0.63529-0.56471l-1.0588-0.35294c-0.84706-0.28235-1.5529-0.98824-1.7647-1.9059-0.21176-1.2 0.42353-2.2588 1.4824-2.6824l1.1294-0.42353c0.28235-0.070588 0.49412-0.28235 0.56471-0.56471 0.070588-0.28235 0.070588-0.56471-0.070588-0.84706l-0.35294-0.98824c-0.42353-0.77647-0.42353-1.7647 0.14118-2.5412 0.70588-0.98824 1.9059-1.3412 2.9647-0.84706l1.1294 0.49412c0.28235 0.14118 0.56471 0.14118 0.84706 0 0.28235-0.14118 0.49412-0.35294 0.56471-0.63529l0.35294-1.2c0.35294-0.98824 1.2-1.6235 2.2588-1.6941 1.0588 0 1.9765 0.56471 2.3294 1.5529l0.42353 1.1294c0.070588 0.28235 0.28235 0.49412 0.56471 0.56471 0.28235 0.070588 0.56471 0.070588 0.84706-0.070588l0.98824-0.35294c0.84706-0.42353 1.8353-0.42353 2.5412 0.14118 0.98824 0.70588 1.2706 1.9059 0.84706 2.9647l-0.49412 1.0588c-0.14118 0.28235-0.14118 0.56471 0 0.84706s0.35294 0.42353 0.63529 0.56471l1.2706 0.42353c0.84706 0.28235 1.5529 0.98824 1.6941 1.8353 0.21176 1.1294-0.42353 2.1882-1.4824 2.6118l-1.4118 0.49412c-0.28235 0.070588-0.49412 0.28235-0.56471 0.56471-0.070588 0.28235-0.070588 0.56471 0.070588 0.84706l0.49412 0.98824c0.42353 0.84706 0.42353 1.8353-0.14118 2.5412-0.70588 0.98824-1.9059 1.3412-2.9647 0.84706l-1.1294-0.42353c-0.28235-0.14118-0.56471-0.14118-0.84706 0-0.28235 0.14118-0.49412 0.35294-0.56471 0.63529l-0.35294 1.2c-0.35294 0.91765-1.2 1.6235-2.3294 1.6235 0.070588 0 0 0 0 0zm-3.6-4.8c0.28235 0 0.56471 0.070588 0.84706 0.14118 0.63529 0.21176 1.1294 0.77647 1.4118 1.4118l0.42353 1.1294c0.21176 0.63529 0.77647 0.63529 0.98824 0.63529 0.35294 0 0.77647-0.21176 0.91765-0.70588l0.35294-1.2c0.21176-0.63529 0.70588-1.2 1.3412-1.4824 0.63529-0.28235 1.3412-0.28235 1.9765 0l1.1294 0.49412c0.56471 0.28235 0.98824-0.14118 1.1294-0.21176 0.21176-0.28235 0.42353-0.70588 0.14118-1.2l-0.56471-1.1294c-0.28235-0.63529-0.35294-1.3412-0.070588-1.9765 0.21176-0.63529 0.77647-1.1294 1.4118-1.4118l1.3412-0.49412c0.49412-0.21176 0.63529-0.56471 0.63529-0.91765 0-0.14118-0.070588-0.70588-0.63529-0.84706l-1.3412-0.42353c-0.63529-0.21176-1.2-0.70588-1.4824-1.3412-0.28235-0.63529-0.28235-1.3412 0-1.9765l0.49412-1.1294c0.21176-0.49412 0-0.91765-0.21176-1.1294-0.14118-0.14118-0.56471-0.49412-1.1294-0.14118l-1.1294 0.56471c-0.63529 0.28235-1.3412 0.35294-1.9765 0.070588-0.63529-0.21176-1.1294-0.77647-1.4118-1.4118l-0.42353-1.0588c-0.28235-0.56471-0.84706-0.63529-0.98824-0.63529-0.35294 0-0.77647 0.21176-0.91765 0.70588l-0.35294 1.2c-0.21176 0.63529-0.70588 1.2-1.3412 1.4824-0.63529 0.21176-1.3412 0.21176-1.9765 0l-1.1294-0.56471c-0.63529-0.21176-1.0588 0.14118-1.1294 0.28235-0.28235 0.21176-0.42353 0.63529-0.21176 1.1294l0.56471 1.1294c0.28235 0.63529 0.35294 1.3412 0.070588 1.9765-0.28235 0.63529-0.77647 1.1294-1.4118 1.4118l-1.0588 0.42353c-0.49412 0.14118-0.70588 0.63529-0.70588 0.98824 0 0.14118 0.070588 0.70588 0.70588 0.91765l1.2 0.35294c0.63529 0.21176 1.2 0.70588 1.4824 1.3412s0.28235 1.3412 0 1.9765l-0.56471 1.1294c-0.21176 0.49412 0 0.91765 0.21176 1.1294 0.14118 0.14118 0.56471 0.49412 1.1294 0.14118l1.1294-0.56471c0.35294-0.14118 0.70588-0.21176 1.1294-0.21176z"/><path d="m12 15.529c-2.3294 0-4.2353-1.9059-4.2353-4.2353 0-2.3294 1.9059-4.2353 4.2353-4.2353 2.3294 0 4.2353 1.9059 4.2353 4.2353 0 2.3294-1.9059 4.2353-4.2353 4.2353zm0-7.0588c-1.5529 0-2.8235 1.2706-2.8235 2.8235 0 1.5529 1.2706 2.8235 2.8235 2.8235s2.8235-1.2706 2.8235-2.8235c0-1.5529-1.2706-2.8235-2.8235-2.8235z"/></g></g></g></svg>