<?xml version="1.0" encoding="UTF-8"?>
<svg width="60px" height="60px" viewBox="0 0 60 60" version="1.1" xmlns="http://www.w3.org/2000/svg" xmlns:xlink="http://www.w3.org/1999/xlink">
    <!-- Generator: Sketch 60.1 (88133) - https://sketch.com -->
    <title>Group 2</title>
    <desc>Created with Sketch.</desc>
    <g id="MVP" stroke="none" stroke-width="1" fill="none" fill-rule="evenodd">
        <g id="Rekisteröidy-käyttäjäksi-ei-validations-(1)" transform="translate(-379.000000, -116.000000)">
            <g id="Group-2" transform="translate(379.000000, 116.000000)">
                <circle id="Oval-Copy" fill="#FFE977" cx="30" cy="30" r="30"></circle>
                <path d="M31.092397,11 C32.8740178,11 36.9078783,11.6079558 41.0126869,14.3950427 C45.1174954,17.1821296 48.0281779,21.4380865 49.0357218,26.2966568 L49.0357218,26.2966568 L49.2596205,26.2966568 C50.6030123,26.4096468 51.759822,27.3512302 52.431518,28.9330903 C52.8793153,29.9876638 53.1032139,31.2682172 52.9539482,32.5487706 C52.767366,35.8254808 50.9015439,38.2735977 48.6625574,38.2735977 L48.6625574,38.2735977 L48.4759752,38.2735977 C48.2520765,38.2735977 48.0654943,38.2359343 47.8415957,38.1606076 C44.8189639,45.0153348 37.9900551,49.5725984 30.4894503,49.5725984 C22.9888456,49.5725984 16.1599368,45.0529981 13.1746215,38.1606076 C12.9507228,38.198271 12.7641406,38.2735977 12.5402419,38.2735977 L12.5402419,38.2735977 L12.3536597,38.2735977 C10.1146732,38.2735977 8.24885117,35.8254808 8.02495252,32.5487706 C7.80105387,29.5733671 9.10712932,27.0875869 11.0102678,26.4473102 C9.70419239,25.7317068 8.73396491,24.9031134 8.17421828,23.9991933 C7.91300319,23.5848967 8.02495252,22.9822833 8.47274982,22.7186399 C8.88323067,22.4549966 9.48029374,22.5679866 9.74150883,23.0199466 C10.1893061,23.6978867 11.0849007,24.41349 12.2790269,25.0161034 C13.6224188,20.3081864 16.7196834,16.3158728 20.9364413,13.8300927 C25.1531992,11.3443125 29.3107763,11 31.092397,11 Z M38.1766373,19.7055731 C35.4525371,23.2082633 31.4596778,25.9576868 26.9443884,27.3888936 C24.5561361,28.1421603 22.093251,28.5187937 19.7049987,28.5187937 C17.5406451,28.5187937 15.4882408,28.1798236 13.5851023,27.5772103 C13.4358365,28.5187937 13.3612037,29.4603771 13.3612037,30.4019604 C13.3612037,32.5111073 13.7343681,34.6202541 14.4806969,36.5787475 C16.9808985,43.2074947 23.4366429,47.6894316 30.4894503,47.6894316 C37.5422578,47.6894316 43.9980022,43.2074947 46.5355202,36.6164109 C47.281849,34.6202541 47.6550135,32.5487706 47.6550135,30.4396238 C47.6550135,30.0253271 47.6550135,29.6110304 47.617697,29.1967337 C47.3937984,29.121407 47.1698997,29.008417 46.9833175,28.9330903 C44.4457995,27.8031903 42.3933952,26.1836668 40.7887882,24.07452 C39.7066114,22.6433133 38.8110168,21.1744432 38.1766373,19.7055731 Z M26.6831733,37.5203309 C27.0190213,37.1436976 27.6160843,37.1436976 27.9892488,37.5203309 C28.4743625,38.0099543 29.2953242,38.2735977 30.4894503,38.2735977 C31.6835765,38.2735977 32.5045382,38.0099543 32.9896519,37.5203309 C33.3628163,37.1436976 33.922563,37.1436976 34.2957274,37.5203309 C34.6688918,37.859301 34.6688918,38.4619143 34.2957274,38.8385477 C33.4747657,39.7048044 32.1686902,40.1567644 30.4894503,40.1567644 C28.8102105,40.1567644 27.5414515,39.7048044 26.6831733,38.8385477 C26.3100089,38.4995777 26.3100089,37.8969643 26.6831733,37.5203309 Z M11.6073309,28.217487 C10.6371034,28.4811303 9.70419239,30.1759804 9.85345815,32.4357806 C10.0027239,34.8838974 11.2714829,36.5034209 12.3909762,36.4280942 L12.3909762,36.4280942 L12.4656091,36.4280942 C11.8312296,34.4696007 11.4953816,32.4734439 11.4953816,30.4019604 C11.4953816,29.6863571 11.532698,28.9330903 11.6073309,28.217487 Z M49.3715698,28.217487 L49.3715698,28.4058036 C49.4462027,29.0460804 49.4835191,29.7240204 49.4835191,30.3642971 C49.4835191,32.4357806 49.1476711,34.4319374 48.5132916,36.3904309 L48.5132916,36.3904309 L48.5879245,36.3904309 C49.6701013,36.4657575 50.9761768,34.8462341 51.1254425,32.4357806 C51.2000754,31.4565339 51.0508096,30.4772871 50.7149617,29.6486937 C50.3791137,28.895427 49.894,28.3681403 49.3715698,28.217487 L49.3715698,28.217487 Z M39.7066114,30.5902771 C40.63403,30.5902771 41.3858513,31.3490874 41.3858513,32.2851272 C41.3858513,33.2211671 40.63403,33.9799774 39.7066114,33.9799774 C38.7791928,33.9799774 38.0273715,33.2211671 38.0273715,32.2851272 C38.0273715,31.3490874 38.7791928,30.5902771 39.7066114,30.5902771 Z M21.6827701,30.5902771 C22.6101887,30.5902771 23.36201,31.3490874 23.36201,32.2851272 C23.36201,33.2211671 22.6101887,33.9799774 21.6827701,33.9799774 C20.7553516,33.9799774 20.0035303,33.2211671 20.0035303,32.2851272 C20.0035303,31.3490874 20.7553516,30.5902771 21.6827701,30.5902771 Z M40.266358,16.1652195 C40.0051429,16.7301695 39.7439279,17.2574562 39.4080799,17.7847429 C40.0051429,19.4419297 40.9753704,21.1744432 42.2441294,22.8692933 C43.5502049,24.6018067 45.2667612,25.9576868 47.281849,26.9369335 C46.4235709,22.6056499 43.9233693,18.7639897 40.266358,16.1652195 Z M30.4894503,13.1144893 C27.6907172,13.1144893 24.9293005,13.7924293 22.4664154,15.1106461 C18.2869739,17.3327829 15.2643422,21.1744432 13.9955832,25.8070335 C16.1972532,26.5226369 20.6752262,27.4265569 26.3473253,25.6187168 C31.049197,24.1121834 35.1540055,21.0614531 37.6168907,17.2574562 C38.0273715,16.5795162 38.400536,15.9392395 38.6990675,15.2612994 C38.2885866,14.9976561 37.8407893,14.7716761 37.392992,14.5833594 C35.191322,13.6041126 32.8777026,13.1144893 30.4894503,13.1144893 Z" id="adult_face" fill="#2A2D2F" fill-rule="nonzero"></path>
            </g>
        </g>
    </g>
</svg>