<?xml version="1.0" encoding="UTF-8"?>
<svg version="1.1" viewBox="0 0 184 140" xmlns="http://www.w3.org/2000/svg"><g fill="none" fill-rule="evenodd"><g transform="translate(-591 -965)" fill="#000" fill-rule="nonzero"><g transform="translate(591 965)"><path d="m69.738 0.297 3.185 3.184 12.764 12.761-1.615 2.955c-0.53992 0.99044-0.82159 2.101-0.819 3.229-2.655e-4 1.7922 0.71171 3.5111 1.9792 4.7782 1.2675 1.2671 2.9866 1.9786 4.7788 1.9778 1.1273 0.0029047 2.237-0.27916 3.226-0.82l2.96-1.614 15.95 15.945-69.441 69.418-15.95-15.945 1.616-2.959c1.1376-2.0937 1.088-4.6318-0.13053-6.6794-1.2185-2.0476-3.4257-3.3018-5.8085-3.3006-1.1272-0.0032113-2.2369 0.27851-3.226 0.819l-2.96 1.614-15.95-15.944 45.05-45.035 6.369-6.372 14.838-14.828 3.184-3.184zm-18.022 30.75-38.676 38.669 5.097 5.096c1.398-0.39397 2.8435-0.59417 4.296-0.595 8.712 0 15.772 7.058 15.772 15.767 0 1.486-0.21 2.927-0.595 4.295l5.097 5.095 38.68-38.664-1.318-1.322-28.353-28.34v-1e-3zm18.024-18.01-11.65 11.643 29.667 29.66 11.649-11.645-5.097-5.096c-1.368 0.384-2.81 0.595-4.296 0.595-8.712 0-15.772-7.058-15.772-15.767 0-1.486 0.21-2.927 0.595-4.295l-5.097-5.095h1e-3zm71.554 14.852 15.949 15.944-1.615 2.955c-0.54044 0.99065-0.82246 2.1015-0.82 3.23 0 1.7921 0.7121 3.5107 1.9796 4.7776s2.9864 1.9782 4.7784 1.9774c1.1272 0.0032113 2.2369-0.27851 3.226-0.819l2.96-1.615 15.95 15.945-69.44 69.418-15.95-15.944 1.615-2.96c1.1376-2.0937 1.088-4.6318-0.13053-6.6794-1.2185-2.0476-3.4257-3.3018-5.8085-3.3006-1.1268-0.003043-2.2362 0.27868-3.225 0.819l-2.96 1.615-15.95-15.945 45.05-45.035 6.368-6.371 14.838-14.829 3.185-3.183zm-18.022 30.75-38.676 38.668 5.097 5.095c1.398-0.39397 2.8435-0.59417 4.296-0.595 8.711 0 15.771 7.058 15.771 15.767 0 1.486-0.21 2.927-0.594 4.295l5.097 5.095 38.68-38.664-1.318-1.322-28.353-28.339zm18.022-18.012-11.648 11.645 29.667 29.658 11.648-11.645-5.097-5.096c-1.368 0.385-2.809 0.595-4.296 0.595-8.711 0-15.771-7.058-15.771-15.766 0-1.487 0.21-2.928 0.594-4.295l-5.097-5.096z"/></g></g></g></svg>