<?xml version="1.0" encoding="UTF-8"?><svg version="1.1" viewBox="0 0 176 129" xmlns="http://www.w3.org/2000/svg"><g fill="none" fill-rule="evenodd"><g transform="translate(-194 -972)" fill="#000" fill-rule="nonzero"><g transform="translate(195 973)"><path id="a" d="m28.039 96.114c1.5775 0 3.1187-0.16793 4.6288-0.41846 10.981 18.713 31.219 31.305 54.331 31.305 23.111 0 43.349-12.591 54.331-31.312 1.5102 0.25787 3.0504 0.41754 4.6288 0.41754 15.46 0.0082591 28.042-12.66 28.042-28.225 0-15.566-12.582-28.233-28.042-28.233-0.17296 0-0.33954 0.022942-0.51341 0.022942-2.9522-7.3034-7.2262-13.99-12.604-19.717 3.7231-3.4523 6.9546-7.3763 9.5226-11.71 0.63421-1.0685 0.82027-2.3476 0.51709-3.5547s-1.0707-2.2428-2.1329-2.8782c-1.0612-0.63866-2.3307-0.82604-3.529-0.52089-1.1983 0.30515-2.2272 1.0778-2.8603 2.1479-2.2202 3.7487-5.1122 7.1478-8.4657 10.128-10.723-8.4867-24.227-13.566-38.893-13.566-26.409 0-49.066 16.433-58.445 39.678-0.17296-0.0073414-0.33954-0.022942-0.51341-0.022942-15.46-0.0073414-28.042 12.66-28.042 28.226 0 15.565 12.582 28.233 28.042 28.233h-0.0027309zm134.61-28.479c0 9.0308-7.161 16.393-16.076 16.716 2.3679-6.7935 3.577-13.941 3.5764-21.139 0-4.1157-0.39789-8.1311-1.141-12.032 7.7509 1.4391 13.641 8.263 13.641 16.455zm-75.27-55.314c10.311-0.011408 20.39 2.9864 28.933 8.6062-6.9391 3.4878-14.767 5.5259-22.617 5.6079-9.2494 0.10253-20.117-3.1989-23.438-10.779-0.076033-0.17742-0.18321-0.33968-0.28123-0.50195 5.5851-1.9428 11.472-2.935 17.403-2.9333h9.16e-4zm-26.567 6.6343c0.030081 0.091741 0.045577 0.1899 0.091154 0.28165 5.2632 12.422 20.161 16.792 31.527 16.792 0.15952 0 0.31813 0 0.46944-0.0082567 10.723-0.11376 21.221-3.2752 30.158-8.6962 9.264 9.3732 15.004 22.272 15.004 36.496 0 28.568-23.117 51.806-51.538 51.806-28.42 0-51.538-23.238-51.538-51.806 0-19.156 10.406-35.902 25.827-44.865zm-35.828 32.225c-0.75355 3.9639-1.1356 7.9901-1.141 12.026-0.001191 7.2008 1.2083 14.35 3.5773 21.145-8.9151-0.31573-16.076-7.6872-16.076-16.721 0-8.1868 5.8898-15.012 13.64-16.451v9.286e-4z" stroke="#F9F9F9" stroke-width="2"/><path d="m87.001 88c11.53 0 20.87-10.26 20.87-22.909h-41.744c0 12.658 9.3426 22.909 20.871 22.909h0.0018309zm-9.198e-4 -16.227c4.7169 0 8.538 4.2785 8.538 9.5455h-17.077c0-5.267 3.822-9.5455 8.5389-9.5455zm-24.667-19.565c0 8.2687-12.333 8.2687-12.333 0 0-8.2768 12.333-8.2768 12.333 0m61.667 0c0 8.2687-12.333 8.2687-12.333 0 0-8.2768 12.333-8.2768 12.333 0"/></g></g></g></svg>