<?xml version="1.0" encoding="UTF-8"?><svg version="1.1" viewBox="0 0 167 140" xmlns="http://www.w3.org/2000/svg"><g fill="none" fill-rule="evenodd"><g transform="translate(-1014 -965)" fill="#000" fill-rule="nonzero"><g transform="translate(1014 965)"><path id="Shape" d="m112.9 93.476c-7.304-1.216-14.963 1.392-19.659 7.132-1.562 1.916-1.216 4.694 0.524 6.086 1.916 1.563 4.695 1.216 6.088-0.523 2.786-3.3 7.135-4.87 11.308-4.17 4.348 0.692 7.828 3.654 9.39 7.825 0.694 1.739 2.263 2.785 4.173 2.785 0.523 0 1.046-0.177 1.563-0.347 2.262-0.869 3.479-3.3 2.609-5.563-2.596-6.962-8.514-12.01-15.996-13.225zm17.751-10.088c0.87 0.177 1.563 0.177 2.433 0.177 4.002 0 8.005-1.74 10.614-5.04 1.563-1.916 1.216-4.694-0.693-6.087-1.916-1.562-4.696-1.216-6.089 0.693-1.046 1.393-2.955 2.085-4.695 1.74-1.74-0.347-3.303-1.563-3.826-3.302-0.87-2.262-3.302-3.478-5.565-2.609-2.263 0.87-3.48 3.302-2.61 5.564 1.557 4.693 5.56 7.995 10.431 8.864z"/><path id="a" d="m163.52 51.218c-21.052-8.872-43.835-13.735-66.627-14.781l-5.912-32.517c-0.346-2.085-2.086-3.477-4.001-3.654-28.358-1.386-57.23 3.655-83.501 14.78-1.74 0.7-2.956 2.786-2.61 4.701l7.136 40.865c1.393 7.826 4.172 15.304 8.52 22.083 8.175 13.219 22.439 21.045 37.749 21.045 2.61 0 5.219-0.177 7.828-0.693 2.263-0.347 4.526-1.046 6.612-1.74 0.177 1.047 0.177 2.086 0.523 3.132 3.65 18.077 17.742 31.64 35.662 34.772 2.609 0.523 5.218 0.693 7.828 0.693 15.133 0 29.395-7.825 37.747-21.045 4.172-6.779 7.135-14.258 8.521-22.082l7.135-40.865c0.347-1.91-0.87-3.994-2.61-4.694h2e-3 -2e-3zm-102.98 43.302c-14.44 2.608-28.881-3.825-36.532-16.343-3.656-5.91-6.089-12.173-7.305-18.951l-6.612-37.57c23.139-9.217 48.016-13.564 72.885-12.864l6.612 37.387c1.217 6.779 1.047 13.565-0.346 20.343-2.956 14.435-14.264 25.392-28.703 28v-1e-3l1e-3 -1e-3zm89.758 0.693c-1.216 6.779-3.656 13.218-7.305 18.95-7.828 12.52-22.09 18.951-36.53 16.344-14.441-2.608-25.748-13.565-28.704-27.823-0.347-1.74-0.693-3.478-0.87-5.217 8.352-4.87 14.787-12.35 18.612-21.39 1.393 0.869 2.956 1.392 4.526 1.738 0.87 0.177 1.563 0.177 2.432 0.177 4.003 0 8.005-1.74 10.615-5.04 1.563-1.916 1.216-4.694-0.694-6.087-1.916-1.562-4.695-1.215-6.088 0.693-1.047 1.393-2.956 2.086-4.696 1.74-1.393-0.177-2.609-1.217-3.302-2.432 1.393-7.133 1.393-14.435 0.177-21.56 20.005 1.046 40.01 5.217 58.453 12.52l-6.626 37.387z"/><path d="m46.445 44.093c1.916-1.562 2.086-4.347 0.523-6.086-3.302-3.824-8.174-5.563-12.87-4.694-4.872 0.87-8.874 4.348-10.614 8.872-0.87 2.262 0.347 4.693 2.61 5.563 0.523 0.177 1.046 0.177 1.392 0.177 1.8765-0.0017933 3.5482-1.1856 4.173-2.955 0.523-1.74 2.086-2.955 3.825-3.132 1.74-0.346 3.656 0.347 4.696 1.74 1.57 1.901 4.356 2.078 6.265 0.515zm18.265-16.173c-4.871 0.869-8.874 4.347-10.613 8.87-0.87 2.263 0.346 4.695 2.609 5.564 0.523 0.177 1.046 0.177 1.393 0.177 1.8761-0.0022166 3.5473-1.186 4.172-2.955 0.523-1.739 2.086-2.955 3.826-3.132 1.74-0.346 3.656 0.347 4.695 1.74 1.563 1.915 4.35 2.085 6.089 0.522 1.916-1.562 2.086-4.347 0.523-6.086-3.126-3.83-7.821-5.57-12.693-4.7h-1e-3zm5.92 28.692c-2.262-0.87-4.695 0.346-5.565 2.608-1.393 4.001-4.872 6.956-9.22 7.826-4.35 0.692-8.699-0.87-11.485-4.171-1.563-1.916-4.349-2.085-6.088-0.523-1.917 1.562-2.087 4.347-0.524 6.086 4.003 4.87 9.745 7.479 15.833 7.479 1.217 0 2.433-0.177 3.656-0.346 7.305-1.216 13.57-6.433 16.003-13.389 0.87-2.269-0.353-4.7-2.61-5.57z"/></g></g></g></svg>