<?xml version="1.0" encoding="UTF-8"?>
<svg version="1.1" viewBox="0 0 20 31" xmlns="http://www.w3.org/2000/svg"><g fill="none" fill-rule="evenodd"><g transform="translate(-237 -266)"><g transform="translate(223 258)"><rect width="48" height="48"/><path d="m31.568 8c1.2125 0 2.1938 0.9825 2.1938 2.1938v26.354c0 1.2112-0.98125 2.1938-2.1938 2.1938h-15.374c-1.2112 0-2.1938-0.9825-2.1938-2.1938v-26.354c0-1.2112 0.9825-2.1938 2.1938-2.1938zm-1.1 3.2938h-13.174v24.154h13.174v-24.154zm-6.5868 17.566c1.2138 0 2.1975 0.9825 2.1975 2.195 0 1.2138-0.98375 2.1962-2.1975 2.1962-1.2125 0-2.1962-0.9825-2.1962-2.1962 0-1.2125 0.98375-2.195 2.1962-2.195z" fill="#000" fill-rule="evenodd"/></g></g></g></svg>