<?xml version="1.0" encoding="UTF-8"?>
<svg width="24px" height="24px" viewBox="0 0 24 24" version="1.1" xmlns="http://www.w3.org/2000/svg" xmlns:xlink="http://www.w3.org/1999/xlink">
    <!-- Generator: Sketch 61 (89581) - https://sketch.com -->
    <title>Settings</title>
    <desc>Created with Sketch.</desc>
    <g id="MVP" stroke="none" stroke-width="1" fill="none" fill-rule="evenodd">
        <g id="Kirjautuneen-käyttäjän-näkymä_no-kids" transform="translate(-1289.000000, -117.000000)" fill="#000000" fill-rule="nonzero">
            <g id="noun_Settings_1497682" transform="translate(1289.000000, 117.000000)">
                <g id="Settings">
                    <path d="M11.7176471,0.75 C12.8386626,0.75 13.7893483,1.3293959 14.2120924,2.29145327 L14.2811411,2.46516032 L14.7131239,3.62171903 C14.7613193,3.81450067 14.9031464,3.95632779 15.095928,4.0045232 C15.30938,4.0578862 15.4934388,4.05749983 15.683343,3.9898238 L15.7982688,3.94103511 L16.7587848,3.59992261 C17.7246032,3.11701345 18.8064361,3.16028676 19.5570743,3.76127251 C20.5612383,4.47853256 20.9320598,5.69665705 20.5516878,6.85312699 L20.4853693,7.03513313 L19.9883127,8.10003869 C19.8823271,8.31200976 19.8823271,8.51151965 19.9883127,8.72349072 C20.0695876,8.88604059 20.1765964,8.99101807 20.3596772,9.09795536 L20.4790569,9.16282918 L21.7496452,9.58635859 C22.7090466,9.90615905 23.4582572,10.6994409 23.6104239,11.6127514 C23.8310963,12.7896708 23.2189675,13.9215767 22.1245317,14.4371534 L21.9649405,14.5065528 L20.5312221,15.0072415 C20.3384405,15.0554369 20.1966134,15.197264 20.148418,15.3900457 C20.095055,15.6034977 20.0954413,15.7875564 20.1562721,15.9614193 L20.2000774,16.0646672 L20.694195,17.0529025 C21.1469224,17.9583572 21.1371846,18.9657778 20.639002,19.7066752 L20.5328451,19.8511919 C19.7921459,20.8881708 18.5499976,21.285295 17.4420338,20.857416 L17.276925,20.7870235 L16.1234907,20.3530186 C15.9115197,20.247033 15.7120098,20.247033 15.5000387,20.3530186 C15.301833,20.4521214 15.1658863,20.5809066 15.0967783,20.7377717 L15.0633708,20.8352475 L14.7039246,22.0544507 C14.3418224,22.9959166 13.5407239,23.6670832 12.5371846,23.8102465 L12.3467064,23.8308392 L12.1411765,23.8382353 C11.1121641,23.8382353 10.152521,23.2165298 9.71918526,22.2897304 L9.64827065,22.123075 L9.2162879,20.9665163 C9.1680925,20.7737346 9.02626538,20.6319075 8.83348374,20.5837121 C8.62003172,20.5303491 8.435973,20.5307355 8.25439967,20.5951423 L7.17062693,21.0589009 C6.2048086,21.5418101 5.12297569,21.4985368 4.37233751,20.897551 C3.36817345,20.180291 2.99735196,18.9621665 3.37558603,17.8104264 L3.4415489,17.6292071 L3.94109908,16.4881966 C4.04708462,16.2762255 4.04708462,16.0767156 3.94109908,15.8647446 C3.85982415,15.7021947 3.75281533,15.5972172 3.5697346,15.4902799 L3.45035482,15.4254061 L2.39153129,15.0724649 C1.4356915,14.7538517 0.687910885,13.9633407 0.459686463,12.9728581 C0.241862328,11.7385213 0.844821838,10.5996947 1.94059791,10.082566 L2.10045443,10.0129765 L3.25701315,9.58099379 C3.44979479,9.53279838 3.59162191,9.39097126 3.63981732,9.19818962 C3.69318032,8.9847376 3.69279394,8.80067888 3.62511792,8.61077469 L3.57632923,8.49584881 L3.23934964,7.54324244 C2.75226056,6.6502458 2.79574403,5.56315894 3.39656663,4.73704339 C4.13726587,3.70006446 5.37941421,3.3029403 6.4981102,3.7351756 L7.80592105,4.30580497 C8.01789211,4.4117905 8.217402,4.4117905 8.42937307,4.30580497 C8.62757878,4.20670211 8.76352547,4.07791689 8.83263346,3.92105185 L8.86604098,3.82357607 L9.22338805,2.61003355 C9.58720501,1.59134606 10.4352894,0.911410755 11.4990919,0.770590781 L11.7176471,0.75 Z M11.7176471,2.66176471 C11.4485543,2.66176471 11.1980113,2.81273154 11.0783569,3.08181134 L11.0398414,3.18818864 L10.6842296,4.396704 C10.4468259,5.10891518 9.89731451,5.72183176 9.18493929,6.03717082 C8.57461857,6.24061107 7.90523452,6.26321554 7.25878972,6.09545779 L7.01760837,6.0236068 L5.92094306,5.47246494 C5.56391491,5.35345556 5.2375516,5.46046119 5.12393716,5.58687654 L5.09419503,5.62945046 L5.02058824,5.71764706 C4.83044561,5.86025403 4.75307229,6.12358322 4.84142586,6.42190986 L4.88243033,6.53525542 L5.4519823,7.67493597 C5.78034948,8.41376213 5.82085353,9.18333906 5.52257053,9.85447579 C5.24303427,10.4834324 4.77188565,10.9863465 4.16220702,11.3063637 L3.97520061,11.3968251 L2.89220969,11.8286163 C2.57265909,11.9199165 2.36764706,12.2510897 2.36764706,12.5764706 C2.36764706,12.8069336 2.48943918,13.0650528 2.77796879,13.2068403 L2.89407099,13.2542763 L4.10258635,13.609888 C4.81479753,13.8472917 5.42771411,14.3968031 5.73433524,15.0867007 C6.01713744,15.7230056 6.04284674,16.425206 5.80782218,17.081207 L5.72948915,17.2765093 L5.17096273,18.3925975 C5.03215765,18.716476 5.11942634,19.0364612 5.32971787,19.2467527 C5.53526246,19.4522973 5.76829659,19.5404589 6.06809144,19.3974767 L6.17054954,19.3410991 L7.31891704,18.7678808 C7.7095714,18.6116191 8.09483628,18.5382353 8.54117647,18.5382353 C8.80398,18.5382353 9.00528326,18.5759797 9.46729224,18.6922409 C10.082619,18.8973499 10.6040077,19.4019653 10.9454791,20.0678855 L11.0340823,20.2533956 L11.4607002,21.3915313 C11.532215,21.6060756 11.6504694,21.7288783 11.8123053,21.7950838 C11.9302117,21.8433183 12.0391002,21.8558824 12.2117647,21.8558824 C12.4808575,21.8558824 12.7314005,21.7049155 12.8510548,21.4358357 L12.8895704,21.3294584 L13.2451821,20.1209431 C13.4825858,19.4087319 14.0320973,18.7958153 14.7219948,18.4891942 C15.3582998,18.206392 16.0605001,18.1806827 16.7077869,18.4116257 L16.9002047,18.4886077 L18.0412152,18.9881579 C18.2711027,19.1031017 18.4710985,19.0720678 18.7001342,18.9346464 L18.882,18.815 L18.9328714,18.7434971 C19.0896382,18.4976567 19.1327702,18.2687244 19.0296412,18.0198113 L18.4068412,16.7721229 C18.1083256,16.1004627 18.0477134,15.4033887 18.2567146,14.7948517 L18.3275351,14.6150607 C18.532644,13.9997339 19.0372594,13.4783452 19.704223,13.136486 L19.8900442,13.0477672 L21.2191672,12.558449 C21.56762,12.4091122 21.7029412,12.1876774 21.7029412,11.8705882 C21.7029412,11.6469861 21.5939092,11.4040775 21.3431193,11.2958826 L21.2423642,11.2619251 L19.8974136,10.8371708 C19.1852025,10.5997671 18.5722859,10.0502557 18.2656648,9.36035815 C17.9828626,8.72405319 17.9571533,8.02185281 18.1880963,7.37456604 L18.2650783,7.18214823 L18.758449,6.05446135 C18.8972541,5.73058284 18.8099854,5.41059764 18.5996939,5.20030611 C18.3941493,4.99476152 18.1611152,4.90659989 17.8613203,5.04958208 L17.7588622,5.10595974 L16.6191817,5.67551171 C15.9475215,5.97402733 15.2504475,6.03463953 14.6419106,5.82563835 L14.4621195,5.75481788 C13.8467928,5.54970896 13.3254041,5.04509354 12.9854448,4.38307602 L12.8972926,4.19873002 L12.4822756,3.15886222 C12.3089635,2.81223808 11.9779221,2.66176471 11.7176471,2.66176471 Z" id="Shape"></path>
                    <path d="M12,7.80882353 C14.467483,7.80882353 16.4852941,9.82663469 16.4852941,12.2941176 C16.4852941,14.7616006 14.467483,16.7794118 12,16.7794118 C9.53251705,16.7794118 7.51470588,14.7616006 7.51470588,12.2941176 C7.51470588,9.82663469 9.53251705,7.80882353 12,7.80882353 Z M12,9.72058824 C10.58513,9.72058824 9.42647059,10.8792477 9.42647059,12.2941176 C9.42647059,13.7089876 10.58513,14.8676471 12,14.8676471 C13.41487,14.8676471 14.5735294,13.7089876 14.5735294,12.2941176 C14.5735294,10.8792477 13.41487,9.72058824 12,9.72058824 Z" id="Shape"></path>
                </g>
            </g>
        </g>
    </g>
</svg>