<?xml version="1.0" encoding="UTF-8"?>
<svg width="132px" height="123px" viewBox="0 0 132 123" version="1.1" xmlns="http://www.w3.org/2000/svg" xmlns:xlink="http://www.w3.org/1999/xlink">
    <!-- Generator: Sketch 60.1 (88133) - https://sketch.com -->
    <title>Group 78</title>
    <desc>Created with Sketch.</desc>
    <g id="MVP" stroke="none" stroke-width="1" fill="none" fill-rule="evenodd">
        <g id="Rekisteröidy-palvelun-käyttäjäksi-hki-profiili-Copy" transform="translate(-662.000000, -282.000000)" stroke="#000000">
            <g id="Group-78" transform="translate(638.129203, 250.942911)">
                <g id="Group-7" transform="translate(58.500000, 119.803301) rotate(45.000000) translate(-58.500000, -119.803301) translate(21.000000, 75.803301)" fill="#FFFFFF">
                    <g id="Group-5" stroke-width="2">
                        <path d="M30.6414544,83.690673 L17.0511925,52.9923087 L17.0511925,52.9923087 L0.600941947,15.8336589 C-0.964044655,12.2985888 0.633023587,8.16417593 4.1680937,6.59918933 C5.06054601,6.20409791 6.02575653,6 7.00175261,6 L67.0827775,6 C70.9487707,6 74.0827775,9.13400675 74.0827775,13 C74.0827775,13.9759961 73.8786796,14.9412066 73.4835881,15.8336589 L43.4430757,83.690673 C41.8780891,87.2257431 37.7436763,88.8228113 34.2086061,87.2578247 C32.6175323,86.5534513 31.3458278,85.2817468 30.6414544,83.690673 Z" id="Combined-Shape-Copy-2"></path>
                        <ellipse id="Oval" cx="37.110878" cy="11.5" rx="36.5" ry="11.5"></ellipse>
                    </g>
                </g>
                <g id="Group-8" transform="translate(101.414179, 69.000000) rotate(45.000000) translate(-101.414179, -69.000000) translate(47.914179, 25.000000)">
                    <path d="M68.2970992,83.2236111 C67.3420819,64.0222222 74.9822203,52.3555555 91.2175144,48.2236111" id="Path-3-Copy" stroke-width="2"></path>
                    <path d="M23.0422652,87.4662518 C22.0872479,68.2648629 29.7273863,56.5981962 45.9626804,52.4662518" id="Path-3-Copy-2" stroke-width="2" transform="translate(34.462680, 69.966252) scale(-1, 1) translate(-34.462680, -69.966252) "></path>
                    <polygon id="Star-Copy-3" stroke-width="2" fill="#FFE977" points="98.8093975 48.9675144 94.4010081 51.2851419 95.2429356 46.3763282 91.6764736 42.899887 96.6052028 42.1837007 98.8093975 37.7175144 101.013592 42.1837007 105.942321 42.899887 102.375859 46.3763282 103.217787 51.2851419"></polygon>
                    <polygon id="Star-Copy-4" stroke-width="2" fill="#FFE977" transform="translate(8.299730, 55.117009) rotate(90.000000) translate(-8.299730, -55.117009) " points="8.29972952 60.0547035 3.66447461 62.6170094 4.54972952 57.1899584 0.799729521 53.3464995 5.98210206 52.5547035 8.29972952 47.6170094 10.617357 52.5547035 15.7997295 53.3464995 12.0497295 57.1899584 12.9349844 62.6170094"></polygon>
                    <polygon id="Star-Copy-5" stroke-width="2" fill="#FFE977" transform="translate(57.797204, 65.016504) rotate(90.000000) translate(-57.797204, -65.016504) " points="57.7972042 69.9541984 53.1619493 72.5165043 54.0472042 67.0894533 50.2972042 63.2459945 55.4795767 62.4541984 57.7972042 57.5165043 60.1148317 62.4541984 65.2972042 63.2459945 61.5472042 67.0894533 62.4324591 72.5165043"></polygon>
                    <polygon id="Star-Copy-6" stroke-width="2" fill="#FFE977" transform="translate(55.621320, 15.437554) rotate(90.000000) translate(-55.621320, -15.437554) " points="55.6213203 24.9837628 46.6598275 29.9375542 48.3713203 19.4452556 41.1213203 12.0145685 51.1405739 10.4837628 55.6213203 0.937554159 60.1020668 10.4837628 70.1213203 12.0145685 62.8713203 19.4452556 64.5828132 29.9375542"></polygon>
                    <polygon id="Star-Copy-7" stroke-width="2" fill="#FFE977" transform="translate(29.512933, 38.146447) rotate(90.000000) translate(-29.512933, -38.146447) " points="29.512933 45.7175776 22.4055421 49.6464466 23.762933 41.3249684 18.012933 35.4316649 25.9592375 34.2175776 29.512933 26.6464466 33.0666284 34.2175776 41.012933 35.4316649 35.262933 41.3249684 36.6203238 49.6464466"></polygon>
                    <polygon id="Star-Copy-8" stroke-width="2" fill="#FFE977" transform="translate(68.349242, 40.893398) rotate(90.000000) translate(-68.349242, -40.893398) " points="68.3492424 48.4645292 61.2418515 52.3933983 62.5992424 44.0719201 56.8492424 38.1786165 64.795547 36.9645292 68.3492424 29.3933983 71.9029378 36.9645292 79.8492424 38.1786165 74.0992424 44.0719201 75.4566333 52.3933983"></polygon>
                    <polygon id="Star-Copy-9" stroke-width="2" fill="#FFE977" transform="translate(90.754119, 18.847432) rotate(90.000000) translate(-90.754119, -18.847432) " points="90.7541189 25.1018447 84.882796 28.3474322 86.0041189 21.4731676 81.2541189 16.6047864 87.8184574 15.6018447 90.7541189 9.34743219 93.6897803 15.6018447 100.254119 16.6047864 95.5041189 21.4731676 96.6254418 28.3474322"></polygon>
                </g>
            </g>
        </g>
    </g>
</svg>