<?xml version="1.0" encoding="UTF-8"?>
<svg version="1.1" viewBox="0 0 175 175" xmlns="http://www.w3.org/2000/svg"><g fill="none" fill-rule="evenodd"><g transform="translate(-654 -282)" stroke="#000"><g transform="translate(629 262.84)"><g transform="translate(0 77.604)" fill="#fff" stroke-width="8"><g transform="translate(71.223 71.287) rotate(45) translate(-45 -54.5)"><path d="m38.238 105.97-38.415-86.901c-1.5631-3.5359 0.036242-7.6695 3.5722-9.2325 0.8915-0.39409 1.8555-0.59765 2.8302-0.59765h76.83c3.866 0 7 3.134 7 7 0 0.97472-0.20356 1.9387-0.59765 2.8302l-38.415 86.901c-1.5631 3.5359-5.6966 5.1352-9.2325 3.5722-1.5939-0.70457-2.8676-1.9783-3.5722-3.5722z"/><ellipse cx="44.723" cy="14.465" rx="43.987" ry="13.879"/></g></g><g transform="translate(135.04 87) rotate(43) translate(-70.5 -53)" stroke-linecap="round" stroke-width="6"><path id="a" d="m79.775 99.124c-1.0796-20.847 7.5571-33.514 25.91-38"/><path transform="translate(43.185 86.124) scale(-1 1) translate(-43.185 -86.124)" d="m30.772 105.12c-1.0381-20.847 7.2664-33.514 24.913-38"/><path id="Star" d="m121.69 69.013-15.152 7.966 2.8938-16.872-12.258-11.949 16.941-2.4616 7.5762-15.351 7.5762 15.351 16.941 2.4616-12.258 11.949 2.8938 16.872-15.152-7.966z" fill="#FFC61E"/><path id="b" transform="translate(14.274 53.268) rotate(90) translate(-14.274 -53.268)" d="m14.274 65.556-12.629 6.7317 2.4106-14.25-10.166-10.047 14.054-2.0705 6.3305-13.005 6.3305 13.005 14.054 2.0705-10.166 10.047 2.4106 14.25-12.629-6.7317z" fill="#FFC61E"/><path transform="translate(65.471 56.117) rotate(90) translate(-65.471 -56.117)" d="m65.471 67.116-11.063 6.1154 2.1082-12.925-8.7699-8.9884 12.135-1.8541 5.5892-11.908 5.5892 11.908 12.135 1.8541-8.7699 8.9884 2.1082 12.925-11.063-6.1154z" fill="#FFC61E"/><path transform="translate(89.615 13.093) rotate(90) translate(-89.615 -13.093)" d="m89.615 24.751-11.681 6.457 2.2263-13.648-9.2699-9.5009 12.826-1.9597 5.8983-12.566 5.8983 12.566 12.826 1.9597-9.2699 9.5009 2.2263 13.648-11.681-6.457z" fill="#FFC61E"/></g></g></g></g></svg>